<svg width="32" height="20" viewBox="0 0 32 20" fill="none" xmlns="http://www.w3.org/2000/svg">
<path d="M16 0.666672C14.7623 0.666672 13.5753 1.15834 12.7002 2.03351C11.825 2.90868 11.3333 4.09566 11.3333 5.33334C11.3333 6.57102 11.825 7.758 12.7002 8.63317C13.5753 9.50834 14.7623 10 16 10C17.2377 10 18.4247 9.50834 19.2998 8.63317C20.175 7.758 20.6667 6.57102 20.6667 5.33334C20.6667 4.09566 20.175 2.90868 19.2998 2.03351C18.4247 1.15834 17.2377 0.666672 16 0.666672ZM16 3.33334C16.5304 3.33334 17.0391 3.54405 17.4142 3.91912C17.7893 4.2942 18 4.80291 18 5.33334C18 5.86377 17.7893 6.37248 17.4142 6.74755C17.0391 7.12263 16.5304 7.33334 16 7.33334C15.4696 7.33334 14.9609 7.12263 14.5858 6.74755C14.2107 6.37248 14 5.86377 14 5.33334C14 4.80291 14.2107 4.2942 14.5858 3.91912C14.9609 3.54405 15.4696 3.33334 16 3.33334ZM7.33333 4.66667C6.44928 4.66667 5.60143 5.01786 4.97631 5.64298C4.35119 6.2681 4 7.11595 4 8.00001C4 9.25334 4.70667 10.3333 5.72 10.9067C6.2 11.1733 6.74667 11.3333 7.33333 11.3333C7.92 11.3333 8.46667 11.1733 8.94667 10.9067C9.44 10.6267 9.85333 10.2267 10.16 9.74667C9.18865 8.48077 8.66357 6.92897 8.66667 5.33334V4.96001C8.26667 4.77334 7.81333 4.66667 7.33333 4.66667ZM24.6667 4.66667C24.1867 4.66667 23.7333 4.77334 23.3333 4.96001V5.33334C23.3333 6.93334 22.8133 8.48001 21.84 9.74667C22 10 22.1733 10.2 22.3733 10.4C22.9882 10.9961 23.8103 11.3307 24.6667 11.3333C25.2533 11.3333 25.8 11.1733 26.28 10.9067C27.2933 10.3333 28 9.25334 28 8.00001C28 7.11595 27.6488 6.2681 27.0237 5.64298C26.3986 5.01786 25.5507 4.66667 24.6667 4.66667ZM16 12.6667C12.88 12.6667 6.66667 14.2267 6.66667 17.3333V19.3333H25.3333V17.3333C25.3333 14.2267 19.12 12.6667 16 12.6667ZM6.28 13.4C3.70667 13.7067 0 15.0133 0 17.3333V19.3333H4V16.76C4 15.4133 4.92 14.2933 6.28 13.4ZM25.72 13.4C27.08 14.2933 28 15.4133 28 16.76V19.3333H32V17.3333C32 15.0133 28.2933 13.7067 25.72 13.4ZM16 15.3333C18.04 15.3333 20.32 16 21.64 16.6667H10.36C11.68 16 13.96 15.3333 16 15.3333Z" fill="white"/>
</svg>
