<svg width="28" height="24" viewBox="0 0 28 24" fill="none" xmlns="http://www.w3.org/2000/svg">
<path d="M15.3337 24L18.0003 22.6667L20.667 24V14.6667H15.3337M20.667 8V5.33333L18.0003 6.66667L15.3337 5.33333V8L12.667 9.33333L15.3337 10.6667V13.3333L18.0003 12L20.667 13.3333V10.6667L23.3337 9.33333M24.667 0H3.33366C2.62641 0 1.94814 0.280951 1.44804 0.781048C0.947944 1.28115 0.666992 1.95942 0.666992 2.66667V16C0.666992 16.7072 0.947944 17.3855 1.44804 17.8856C1.94814 18.3857 2.62641 18.6667 3.33366 18.6667H12.667V16H3.33366V2.66667H24.667V16H23.3337V18.6667H24.667C25.3742 18.6667 26.0525 18.3857 26.5526 17.8856C27.0527 17.3855 27.3337 16.7072 27.3337 16V2.66667C27.3337 1.95942 27.0527 1.28115 26.5526 0.781048C26.0525 0.280951 25.3742 0 24.667 0ZM12.667 6.66667H4.66699V4H12.667M10.0003 10.6667H4.66699V8H10.0003M12.667 14.6667H4.66699V12H12.667V14.6667Z" fill="white"/>
</svg>
