<svg width="8" height="6" viewBox="0 0 8 6" fill="none" xmlns="http://www.w3.org/2000/svg">
<path d="M0.473283 1.19334C0.411481 1.25501 0.362449 1.32827 0.328995 1.40892C0.29554 1.48957 0.27832 1.57602 0.27832 1.66334C0.27832 1.75065 0.29554 1.8371 0.328995 1.91775C0.362449 1.9984 0.411481 2.07166 0.473283 2.13334L3.53328 5.19334C3.59496 5.25514 3.66822 5.30417 3.74887 5.33762C3.82952 5.37108 3.91597 5.3883 4.00328 5.3883C4.0906 5.3883 4.17705 5.37108 4.2577 5.33762C4.33835 5.30417 4.41161 5.25514 4.47328 5.19334L7.53328 2.13334C7.595 2.07161 7.64396 1.99834 7.67737 1.9177C7.71077 1.83705 7.72796 1.75062 7.72796 1.66334C7.72796 1.57605 7.71077 1.48962 7.67737 1.40897C7.64396 1.32833 7.595 1.25506 7.53328 1.19334C7.47156 1.13161 7.39829 1.08265 7.31765 1.04925C7.237 1.01585 7.15057 0.998655 7.06328 0.998655C6.976 0.998655 6.88956 1.01585 6.80892 1.04925C6.72828 1.08265 6.655 1.13161 6.59328 1.19334L3.99995 3.78L1.41328 1.19334C1.15328 0.933335 0.726616 0.940002 0.473283 1.19334Z" fill="#1E1E1E"/>
</svg>
