<svg width="26" height="24" viewBox="0 0 26 24" fill="none" xmlns="http://www.w3.org/2000/svg">
<path d="M17.6667 20.6667C14.3333 20.6667 11.4267 18.7733 9.98668 16H17.6667L19 13.3333H9.10668C9.04001 12.8933 9.00001 12.4533 9.00001 12C9.00001 11.5467 9.04001 11.1067 9.10668 10.6667H17.6667L19 8.00001H9.98668C10.7169 6.59358 11.8192 5.41464 13.1735 4.59173C14.5278 3.76882 16.082 3.33354 17.6667 3.33334C19.8133 3.33334 21.7867 4.12001 23.3067 5.42667L25.6667 3.06667C23.4712 1.08996 20.6209 -0.00266225 17.6667 4.87139e-06C12.44 4.87139e-06 8.01334 3.33334 6.33334 8.00001H1.66668L0.333344 10.6667H5.74668C5.66668 11.1067 5.66668 11.5467 5.66668 12C5.66668 12.4533 5.66668 12.8933 5.74668 13.3333H1.66668L0.333344 16H6.33334C8.01334 20.6667 12.44 24 17.6667 24C20.7467 24 23.5467 22.84 25.6667 20.9333L23.2933 18.5733C21.7867 19.88 19.8267 20.6667 17.6667 20.6667Z" fill="#AABE28"/>
</svg>
