<svg width="22" height="22" viewBox="0 0 22 22" fill="none" xmlns="http://www.w3.org/2000/svg">
<path d="M21.1721 0.830392C21.0187 0.677056 20.8243 0.571319 20.6122 0.525911C20.4002 0.480504 20.1795 0.497361 19.9768 0.574454L1.22539 7.6718H1.22164C1.00543 7.75495 0.820166 7.90282 0.691144 8.09521C0.562123 8.2876 0.495636 8.51513 0.500764 8.74672C0.505892 8.97831 0.582386 9.20267 0.719797 9.38916C0.857208 9.57564 1.04884 9.71517 1.26851 9.78867L1.28773 9.79477L7.72367 12.543C7.8492 12.5812 7.98253 12.5857 8.11035 12.5561C8.23817 12.5266 8.35601 12.4641 8.45211 12.3748L18.7815 2.74992C18.8123 2.71914 18.8488 2.69473 18.889 2.67807C18.9292 2.66142 18.9723 2.65284 19.0159 2.65284C19.0594 2.65284 19.1025 2.66142 19.1427 2.67807C19.1829 2.69473 19.2195 2.71914 19.2502 2.74992C19.281 2.7807 19.3054 2.81724 19.3221 2.85746C19.3387 2.89767 19.3473 2.94077 19.3473 2.9843C19.3473 3.02783 19.3387 3.07093 19.3221 3.11114C19.3054 3.15136 19.281 3.18789 19.2502 3.21867L9.62492 13.5434C9.53561 13.6395 9.47307 13.7573 9.44354 13.8851C9.41401 14.0129 9.41853 14.1463 9.45664 14.2718L12.2059 20.7115C12.2087 20.7209 12.2115 20.7293 12.2148 20.7382C12.3648 21.1727 12.7444 21.4793 13.2034 21.4999H13.2502C13.4819 21.5012 13.7086 21.4328 13.9009 21.3036C14.0932 21.1744 14.2421 20.9903 14.3284 20.7752L21.4248 2.02899C21.503 1.82615 21.5207 1.605 21.4759 1.39229C21.431 1.17957 21.3255 0.984408 21.1721 0.830392Z" fill="white"/>
</svg>
