<svg width="8" height="6" viewBox="0 0 8 6" fill="none" xmlns="http://www.w3.org/2000/svg">
<path d="M0.473283 4.80666C0.411481 4.74498 0.362449 4.67172 0.328995 4.59107C0.29554 4.51042 0.27832 4.42397 0.27832 4.33666C0.27832 4.24934 0.29554 4.16289 0.328995 4.08224C0.362449 4.00159 0.411481 3.92833 0.473283 3.86666L3.53328 0.806657C3.59496 0.744855 3.66822 0.695823 3.74887 0.662369C3.82952 0.628914 3.91597 0.611694 4.00328 0.611694C4.0906 0.611694 4.17705 0.628914 4.2577 0.662369C4.33835 0.695823 4.41161 0.744855 4.47328 0.806657L7.53328 3.86666C7.595 3.92838 7.64396 4.00165 7.67737 4.08229C7.71077 4.16294 7.72796 4.24937 7.72796 4.33666C7.72796 4.42394 7.71077 4.51038 7.67737 4.59102C7.64396 4.67166 7.595 4.74494 7.53328 4.80666C7.47156 4.86838 7.39829 4.91734 7.31765 4.95074C7.237 4.98414 7.15057 5.00134 7.06328 5.00134C6.976 5.00134 6.88956 4.98414 6.80892 4.95074C6.72828 4.91734 6.655 4.86838 6.59328 4.80666L3.99995 2.21999L1.41328 4.80666C1.15328 5.06666 0.726616 5.05999 0.473283 4.80666Z" fill="#EC7409"/>
</svg>
