<svg width="14" height="12" viewBox="0 0 14 12" fill="none" xmlns="http://www.w3.org/2000/svg">
<path d="M12.3333 3.33334L6.99992 6.66667L1.66659 3.33334V2.00001L6.99992 5.33334L12.3333 2.00001M12.3333 0.666672H1.66659C0.926585 0.666672 0.333252 1.26001 0.333252 2.00001V10C0.333252 10.3536 0.473728 10.6928 0.723776 10.9428C0.973825 11.1929 1.31296 11.3333 1.66659 11.3333H12.3333C12.6869 11.3333 13.026 11.1929 13.2761 10.9428C13.5261 10.6928 13.6666 10.3536 13.6666 10V2.00001C13.6666 1.64638 13.5261 1.30724 13.2761 1.0572C13.026 0.807147 12.6869 0.666672 12.3333 0.666672Z" fill="#1E1E1E"/>
</svg>
