<svg width="10" height="13" viewBox="0 0 10 13" fill="none" xmlns="http://www.w3.org/2000/svg">
<path opacity="0.4" d="M6.24219 2.01562C5.50781 2.01562 4.90625 2.23438 4.4375 2.67188C3.97396 3.10938 3.66406 3.77083 3.50781 4.65625H7.07031V5.85938H3.39062L3.375 6.21094V6.64062L3.39062 6.94531H6.57812V8.14062H3.52344C3.85677 9.76562 4.80469 10.5781 6.36719 10.5781C7.11198 10.5781 7.875 10.4167 8.65625 10.0938V11.6797C7.97396 11.9974 7.17969 12.1562 6.27344 12.1562C5.01823 12.1562 3.9974 11.8125 3.21094 11.125C2.42969 10.4375 1.91927 9.44271 1.67969 8.14062H0.492188V6.94531H1.55469L1.53906 6.65625V6.36719L1.55469 5.85938H0.492188V4.65625H1.66406C1.86198 3.34896 2.35938 2.32292 3.15625 1.57812C3.95312 0.833333 4.98177 0.460938 6.24219 0.460938C7.28385 0.460938 8.21615 0.690104 9.03906 1.14844L8.38281 2.60938C7.58073 2.21354 6.86719 2.01562 6.24219 2.01562Z" fill="#1E1E1E"/>
</svg>
