<svg width="12" height="15" viewBox="0 0 12 15" fill="none" xmlns="http://www.w3.org/2000/svg">
<path d="M2.00008 14.6667C1.63341 14.6667 1.31964 14.5362 1.05875 14.2753C0.797415 14.014 0.666748 13.7 0.666748 13.3333V6.66666C0.666748 6.29999 0.797415 5.98599 1.05875 5.72466C1.31964 5.46377 1.63341 5.33332 2.00008 5.33332H2.66675V3.99999C2.66675 3.07777 2.99186 2.29155 3.64208 1.64132C4.29186 0.991545 5.07786 0.666656 6.00008 0.666656C6.9223 0.666656 7.70853 0.991545 8.35875 1.64132C9.00853 2.29155 9.33342 3.07777 9.33342 3.99999V5.33332H10.0001C10.3667 5.33332 10.6807 5.46377 10.9421 5.72466C11.203 5.98599 11.3334 6.29999 11.3334 6.66666V13.3333C11.3334 13.7 11.203 14.014 10.9421 14.2753C10.6807 14.5362 10.3667 14.6667 10.0001 14.6667H2.00008ZM6.00008 11.3333C6.36675 11.3333 6.68075 11.2029 6.94208 10.942C7.20297 10.6807 7.33342 10.3667 7.33342 9.99999C7.33342 9.63332 7.20297 9.31932 6.94208 9.05799C6.68075 8.7971 6.36675 8.66666 6.00008 8.66666C5.63341 8.66666 5.31964 8.7971 5.05875 9.05799C4.79742 9.31932 4.66675 9.63332 4.66675 9.99999C4.66675 10.3667 4.79742 10.6807 5.05875 10.942C5.31964 11.2029 5.63341 11.3333 6.00008 11.3333ZM4.00008 5.33332H8.00008V3.99999C8.00008 3.44443 7.80564 2.97221 7.41675 2.58332C7.02786 2.19443 6.55564 1.99999 6.00008 1.99999C5.44453 1.99999 4.9723 2.19443 4.58341 2.58332C4.19453 2.97221 4.00008 3.44443 4.00008 3.99999V5.33332Z" fill="#AABE28"/>
</svg>
